<svg width="191" height="22" viewBox="0 0 191 22" fill="none" xmlns="http://www.w3.org/2000/svg">
<path d="M15.0352 4.41602H4.37109V8.69531H14.1602V12.1953H4.37109V17.377H15.5273V21H0.255859V0.847656H15.0352V4.41602ZM27.6816 6.09766H31.8652L26.4922 21H22.377L17.0312 6.09766H21.4062L24.5098 17.0898L27.6816 6.09766ZM39.959 8.91406C39.0566 8.91406 38.3548 9.19661 37.8535 9.76172C37.3613 10.3268 37.0514 11.0924 36.9238 12.0586H42.9805C42.9167 11.0286 42.6022 10.2493 42.0371 9.7207C41.4811 9.18294 40.7884 8.91406 39.959 8.91406ZM39.959 5.70117C41.1986 5.70117 42.3151 5.93359 43.3086 6.39844C44.3021 6.86328 45.1224 7.59701 45.7695 8.59961C46.3529 9.48372 46.7311 10.5091 46.9043 11.6758C47.0046 12.3594 47.0456 13.3438 47.0273 14.6289H36.8281C36.8828 16.1237 37.3522 17.1719 38.2363 17.7734C38.7741 18.1471 39.4212 18.334 40.1777 18.334C40.9798 18.334 41.6315 18.1061 42.1328 17.6504C42.4062 17.4043 42.6478 17.0625 42.8574 16.625H46.8359C46.7357 17.5091 46.2754 18.4069 45.4551 19.3184C44.179 20.7676 42.3926 21.4922 40.0957 21.4922C38.1999 21.4922 36.5273 20.8815 35.0781 19.6602C33.6289 18.4388 32.9043 16.4518 32.9043 13.6992C32.9043 11.1198 33.556 9.14193 34.8594 7.76562C36.1719 6.38932 37.8717 5.70117 39.959 5.70117ZM57.9238 5.74219C59.4642 5.74219 60.722 6.14779 61.6973 6.95898C62.6816 7.76107 63.1738 9.09635 63.1738 10.9648V21H59.1816V11.9355C59.1816 11.1517 59.0768 10.5501 58.8672 10.1309C58.4844 9.36523 57.7552 8.98242 56.6797 8.98242C55.3581 8.98242 54.4512 9.54297 53.959 10.6641C53.7038 11.2565 53.5762 12.013 53.5762 12.9336V21H49.6934V6.125H53.4531V8.29883C53.9544 7.5332 54.4284 6.98177 54.875 6.64453C55.6771 6.04297 56.6934 5.74219 57.9238 5.74219ZM65.252 9.00977V6.23438H67.3301V2.07812H71.1855V6.23438H73.6055V9.00977H71.1855V16.8848C71.1855 17.4954 71.263 17.8783 71.418 18.0332C71.5729 18.179 72.0469 18.252 72.8398 18.252C72.9583 18.252 73.0814 18.252 73.209 18.252C73.3457 18.2428 73.4779 18.2337 73.6055 18.2246V21.1367L71.7598 21.2051C69.9186 21.2689 68.6608 20.9499 67.9863 20.248C67.5488 19.8014 67.3301 19.1133 67.3301 18.1836V9.00977H65.252ZM79.1426 16.2422C79.2246 16.9349 79.4023 17.4271 79.6758 17.7188C80.1589 18.2383 81.0521 18.498 82.3555 18.498C83.1211 18.498 83.7272 18.3841 84.1738 18.1562C84.6296 17.9284 84.8574 17.5866 84.8574 17.1309C84.8574 16.6934 84.6751 16.3607 84.3105 16.1328C83.946 15.9049 82.5924 15.513 80.25 14.957C78.5638 14.5378 77.3743 14.0137 76.6816 13.3848C75.9889 12.765 75.6426 11.8717 75.6426 10.7051C75.6426 9.32878 76.1803 8.14844 77.2559 7.16406C78.3405 6.17057 79.8626 5.67383 81.8223 5.67383C83.6816 5.67383 85.1947 6.04753 86.3613 6.79492C87.5371 7.5332 88.2116 8.8138 88.3848 10.6367H84.4883C84.4336 10.1354 84.2923 9.73893 84.0645 9.44727C83.6361 8.91862 82.9069 8.6543 81.877 8.6543C81.0293 8.6543 80.4232 8.78646 80.0586 9.05078C79.7031 9.3151 79.5254 9.625 79.5254 9.98047C79.5254 10.4271 79.7168 10.7507 80.0996 10.9512C80.4824 11.1608 81.8359 11.5208 84.1602 12.0312C85.7096 12.3958 86.8717 12.9473 87.6465 13.6855C88.4121 14.4329 88.7949 15.3672 88.7949 16.4883C88.7949 17.9648 88.2435 19.1725 87.1406 20.1113C86.0469 21.041 84.3516 21.5059 82.0547 21.5059C79.7122 21.5059 77.9805 21.0137 76.8594 20.0293C75.7474 19.0358 75.1914 17.7734 75.1914 16.2422H79.1426Z" fill="#253C7F"/>
<path d="M96.2188 4.34766V9.76172H100.99C101.938 9.76172 102.649 9.65234 103.123 9.43359C103.962 9.05078 104.381 8.29427 104.381 7.16406C104.381 5.94271 103.975 5.1224 103.164 4.70312C102.708 4.46615 102.025 4.34766 101.113 4.34766H96.2188ZM101.988 0.847656C103.401 0.875 104.486 1.04818 105.242 1.36719C106.008 1.6862 106.655 2.1556 107.184 2.77539C107.621 3.28581 107.967 3.85091 108.223 4.4707C108.478 5.09049 108.605 5.79688 108.605 6.58984C108.605 7.54688 108.364 8.49023 107.881 9.41992C107.398 10.3405 106.6 10.9922 105.488 11.375C106.418 11.7487 107.074 12.2819 107.457 12.9746C107.849 13.6582 108.045 14.7064 108.045 16.1191V17.4727C108.045 18.3932 108.081 19.0176 108.154 19.3457C108.264 19.8652 108.519 20.248 108.92 20.4941V21H104.285C104.158 20.5534 104.066 20.1934 104.012 19.9199C103.902 19.3548 103.843 18.776 103.834 18.1836L103.807 16.3105C103.788 15.0254 103.551 14.1686 103.096 13.7402C102.649 13.3118 101.806 13.0977 100.566 13.0977H96.2188V21H92.1035V0.847656H101.988ZM117.807 8.91406C116.904 8.91406 116.202 9.19661 115.701 9.76172C115.209 10.3268 114.899 11.0924 114.771 12.0586H120.828C120.764 11.0286 120.45 10.2493 119.885 9.7207C119.329 9.18294 118.636 8.91406 117.807 8.91406ZM117.807 5.70117C119.046 5.70117 120.163 5.93359 121.156 6.39844C122.15 6.86328 122.97 7.59701 123.617 8.59961C124.201 9.48372 124.579 10.5091 124.752 11.6758C124.852 12.3594 124.893 13.3438 124.875 14.6289H114.676C114.73 16.1237 115.2 17.1719 116.084 17.7734C116.622 18.1471 117.269 18.334 118.025 18.334C118.827 18.334 119.479 18.1061 119.98 17.6504C120.254 17.4043 120.495 17.0625 120.705 16.625H124.684C124.583 17.5091 124.123 18.4069 123.303 19.3184C122.027 20.7676 120.24 21.4922 117.943 21.4922C116.048 21.4922 114.375 20.8815 112.926 19.6602C111.477 18.4388 110.752 16.4518 110.752 13.6992C110.752 11.1198 111.404 9.14193 112.707 7.76562C114.02 6.38932 115.719 5.70117 117.807 5.70117ZM135.771 5.74219C137.312 5.74219 138.57 6.14779 139.545 6.95898C140.529 7.76107 141.021 9.09635 141.021 10.9648V21H137.029V11.9355C137.029 11.1517 136.924 10.5501 136.715 10.1309C136.332 9.36523 135.603 8.98242 134.527 8.98242C133.206 8.98242 132.299 9.54297 131.807 10.6641C131.551 11.2565 131.424 12.013 131.424 12.9336V21H127.541V6.125H131.301V8.29883C131.802 7.5332 132.276 6.98177 132.723 6.64453C133.525 6.04297 134.541 5.74219 135.771 5.74219ZM143.1 9.00977V6.23438H145.178V2.07812H149.033V6.23438H151.453V9.00977H149.033V16.8848C149.033 17.4954 149.111 17.8783 149.266 18.0332C149.421 18.179 149.895 18.252 150.688 18.252C150.806 18.252 150.929 18.252 151.057 18.252C151.193 18.2428 151.326 18.2337 151.453 18.2246V21.1367L149.607 21.2051C147.766 21.2689 146.508 20.9499 145.834 20.248C145.396 19.8014 145.178 19.1133 145.178 18.1836V9.00977H143.1ZM162.172 13.7539C161.926 13.9089 161.675 14.0365 161.42 14.1367C161.174 14.2279 160.832 14.3145 160.395 14.3965L159.52 14.5605C158.699 14.7064 158.111 14.8841 157.756 15.0938C157.154 15.4492 156.854 16.0007 156.854 16.748C156.854 17.4134 157.036 17.8965 157.4 18.1973C157.774 18.4889 158.225 18.6348 158.754 18.6348C159.592 18.6348 160.363 18.3887 161.064 17.8965C161.775 17.4043 162.145 16.5065 162.172 15.2031V13.7539ZM159.807 11.9355C160.527 11.8444 161.042 11.7305 161.352 11.5938C161.908 11.3568 162.186 10.9876 162.186 10.4863C162.186 9.87565 161.971 9.45638 161.543 9.22852C161.124 8.99154 160.504 8.87305 159.684 8.87305C158.763 8.87305 158.111 9.10091 157.729 9.55664C157.455 9.89388 157.273 10.3496 157.182 10.9238H153.422C153.504 9.62044 153.868 8.54948 154.516 7.71094C155.546 6.39844 157.314 5.74219 159.82 5.74219C161.452 5.74219 162.901 6.06576 164.168 6.71289C165.435 7.36003 166.068 8.58138 166.068 10.377V17.2129C166.068 17.6868 166.077 18.2611 166.096 18.9355C166.123 19.446 166.201 19.7923 166.328 19.9746C166.456 20.1569 166.647 20.3073 166.902 20.4258V21H162.664C162.546 20.6992 162.464 20.4167 162.418 20.1523C162.372 19.888 162.336 19.5872 162.309 19.25C161.771 19.8333 161.151 20.3301 160.449 20.7402C159.611 21.2233 158.663 21.4648 157.605 21.4648C156.257 21.4648 155.14 21.082 154.256 20.3164C153.381 19.5417 152.943 18.4479 152.943 17.0352C152.943 15.2031 153.65 13.877 155.062 13.0566C155.837 12.61 156.977 12.291 158.48 12.0996L159.807 11.9355ZM173.52 21H169.623V0.847656H173.52V21ZM180.369 16.2422C180.451 16.9349 180.629 17.4271 180.902 17.7188C181.385 18.2383 182.279 18.498 183.582 18.498C184.348 18.498 184.954 18.3841 185.4 18.1562C185.856 17.9284 186.084 17.5866 186.084 17.1309C186.084 16.6934 185.902 16.3607 185.537 16.1328C185.173 15.9049 183.819 15.513 181.477 14.957C179.79 14.5378 178.601 14.0137 177.908 13.3848C177.215 12.765 176.869 11.8717 176.869 10.7051C176.869 9.32878 177.407 8.14844 178.482 7.16406C179.567 6.17057 181.089 5.67383 183.049 5.67383C184.908 5.67383 186.421 6.04753 187.588 6.79492C188.764 7.5332 189.438 8.8138 189.611 10.6367H185.715C185.66 10.1354 185.519 9.73893 185.291 9.44727C184.863 8.91862 184.133 8.6543 183.104 8.6543C182.256 8.6543 181.65 8.78646 181.285 9.05078C180.93 9.3151 180.752 9.625 180.752 9.98047C180.752 10.4271 180.943 10.7507 181.326 10.9512C181.709 11.1608 183.062 11.5208 185.387 12.0312C186.936 12.3958 188.098 12.9473 188.873 13.6855C189.639 14.4329 190.021 15.3672 190.021 16.4883C190.021 17.9648 189.47 19.1725 188.367 20.1113C187.273 21.041 185.578 21.5059 183.281 21.5059C180.939 21.5059 179.207 21.0137 178.086 20.0293C176.974 19.0358 176.418 17.7734 176.418 16.2422H180.369Z" fill="#2977D2"/>
</svg>
